<?xml version="1.0" encoding="utf-8"?>
<!-- Generator: Adobe Illustrator 26.1.0, SVG Export Plug-In . SVG Version: 6.00 Build 0)  -->
<svg version="1.1" id="Слой_1" xmlns="http://www.w3.org/2000/svg" xmlns:xlink="http://www.w3.org/1999/xlink" x="0px" y="0px"
	 viewBox="0 0 2763.82 720.28" style="enable-background:new 0 0 2763.82 720.28;" xml:space="preserve">
<style type="text/css">
	.st0{fill:#070707;}
	.st1{fill:#042FF4;}
	.st2{fill:#0EF9DA;}
</style>
<g>
	<g>
		<path class="st0" d="M1044.85,206.4c-17.3-19.87-38.22-35.63-62.73-47.24c-24.53-11.62-51.77-17.43-81.71-17.43
			c-33.57,0-63.89,7.36-91.01,22.07c-27.1,14.72-48.53,36.28-64.28,64.67c-4.97,8.95-9.17,18.62-12.77,28.85V141.73h-46.47v578.54
			h58.09V491.64c16.72,28.61,38.53,50.22,65.44,64.83c27.11,14.72,56.93,22.07,89.45,22.07c30.46,0,57.96-5.81,82.49-17.43
			c24.52-11.62,45.43-27.36,62.73-47.24c17.29-19.87,30.6-42.6,39.89-68.16c9.29-25.56,13.94-52.28,13.94-80.16v-10.84
			c0-27.88-4.52-54.6-13.55-80.16C1075.31,249,1062.14,226.28,1044.85,206.4z M1022.01,444.94c-11.89,25.56-28.93,45.7-51.12,60.41
			c-22.2,14.72-48.8,22.07-79.77,22.07c-27.88,0-53.19-6.2-75.9-18.59c-22.73-12.39-40.67-29.55-53.84-51.51
			c-13.16-21.94-19.74-47.36-19.74-76.28V343.1c0-30.46,6.58-56.93,19.74-79.39c13.17-22.46,31.1-39.89,53.84-52.28
			c22.72-12.39,48.02-18.59,75.9-18.59c30.45,0,56.79,7.36,78.99,22.07c22.19,14.72,39.37,34.6,51.5,59.64
			c12.13,25.05,18.21,53.57,18.21,85.58C1039.82,391.12,1033.88,419.39,1022.01,444.94z"/>
		<polygon class="st0" points="1124.25,0 1124.25,47.24 1183.88,47.24 1183.88,565.38 1241.97,565.38 1241.97,47.24 1241.97,0 
			1183.88,0 		"/>
		<path class="st0" d="M1634.26,170.39c-28.66-19.1-64.42-28.66-107.27-28.66c-33.57,0-62.87,6.07-87.91,18.2
			c-25.05,12.14-45.82,28.27-62.35,48.41s-28.79,42.86-36.78,68.15c-8.01,25.31-12.01,51.12-12.01,77.45v10.84
			c0,26.85,4,52.93,12.01,78.22c7.99,25.3,20.25,48.15,36.78,68.54c16.52,20.4,37.68,36.67,63.51,48.79
			c25.82,12.13,56.28,18.2,91.39,18.2c32.53,0,61.44-5.42,86.75-16.26c25.28-10.84,46.2-26.2,62.73-46.08
			c16.51-19.87,27.36-43.49,32.53-70.86h-54.22c-5.17,22.21-18.85,41.43-41.04,57.7c-22.21,16.26-51.12,24.4-86.75,24.4
			c-33.57,0-61.32-7.48-83.25-22.46c-21.96-14.97-38.22-35.24-48.8-60.8c-9.43-22.76-14.63-47.68-15.66-74.74h336.68v-30.2
			c0-34.08-7.23-65.95-21.68-95.65C1684.46,213.89,1662.91,189.5,1634.26,170.39z M1399.58,274.94
			c10.58-24.78,26.46-44.66,47.64-59.63c21.16-14.97,47.74-22.46,79.77-22.46c30.46,0,55.88,6.58,76.29,19.75
			c20.39,13.17,35.88,31.25,46.47,54.21c7.89,17.15,12.84,36.38,14.84,57.7h-278.51C1388.58,306.72,1393.07,290.19,1399.58,274.94z"
			/>
		<path class="st0" d="M1884.81,79.77c13.95,0,24.27-3.74,30.98-11.23c6.7-7.48,10.07-16.9,10.07-28.27
			c0-11.35-3.37-20.78-10.07-28.27c-6.71-7.48-17.04-11.23-30.98-11.23c-13.94,0-24.39,3.75-31.37,11.23
			c-6.97,7.49-10.45,16.92-10.45,28.27c0,11.36,3.48,20.79,10.45,28.27C1860.42,76.03,1870.88,79.77,1884.81,79.77z"/>
		<polygon class="st0" points="1806.59,155.67 1806.59,202.14 1872.42,202.14 1872.42,565.38 1929.74,565.38 1929.74,202.14 
			1929.74,155.67 1872.42,155.67 		"/>
		<path class="st0" d="M2273.94,166.52c-25.55-10.32-59.25-15.49-101.07-15.49c-11.88,0-24.14,0.13-36.79,0.39
			c-12.66,0.27-24.92,0.91-36.79,1.94c-11.88,1.04-23.5,2.07-34.85,3.1v51.12c10.85-1.03,23.35-1.94,37.57-2.71
			c14.19-0.78,29.16-1.41,44.92-1.94c15.74-0.51,31.37-0.78,46.86-0.78c33.55,0,58.33,8.13,74.35,24.4
			c16,16.26,24.01,39.63,24.01,70.09v19.36h-114.63c-34.07,0-63.12,5.03-87.13,15.1c-24,10.07-42.34,24.66-54.99,43.76
			c-12.66,19.11-18.98,42.34-18.98,69.71c0,27.88,6.06,51.64,18.2,71.25c12.13,19.63,29.3,34.6,51.5,44.92
			c22.19,10.32,47.75,15.49,76.68,15.49c28.39,0,53.18-5.17,74.36-15.49c21.16-10.32,37.94-25.68,50.34-46.08
			c5.79-9.53,10.4-20.2,13.94-31.92v82.65h46.47V302.05c0-36.13-5.94-65.18-17.81-87.13
			C2318.21,192.98,2299.5,176.85,2273.94,166.52z M2272.78,483.67c-11.88,16.78-26.59,28.65-44.14,35.63
			c-17.56,6.97-35.89,10.46-54.99,10.46c-30.98,0-55.51-7.61-73.58-22.85c-18.08-15.22-27.1-35.75-27.1-61.57
			c0-25.29,8.64-45.82,25.94-61.57c17.29-15.74,42.21-23.62,74.74-23.62h118.5v54.21C2291.1,443.78,2284.66,466.9,2272.78,483.67z"
			/>
		<path class="st0" d="M2724.71,367.88c-26.08-19.1-59.77-30.98-101.07-35.63l-46.47-4.65c-25.3-2.58-43.89-9.41-55.76-20.52
			c-11.88-11.1-17.81-25.17-17.81-42.21c0-20.14,7.87-37.18,23.63-51.12c15.74-13.94,39.61-20.91,71.64-20.91
			c30.97,0,54.47,6.72,70.48,20.14c15.99,13.43,24.26,29.95,24.78,49.57h54.21c-0.52-38.2-14.6-67.64-42.2-88.29
			c-27.64-20.65-63.39-30.98-107.27-30.98c-30.47,0-56.93,5.03-79.39,15.1c-22.46,10.07-39.89,24.14-52.28,42.21
			c-12.39,18.08-18.59,39.24-18.59,63.51c0,33.05,11.49,59,34.47,77.84c22.97,18.85,53.06,30.34,90.23,34.46l46.46,4.65
			c28.92,3.1,50.99,10.2,66.23,21.3c15.22,11.11,22.84,26.72,22.84,46.86c0,21.69-9.17,40.15-27.5,55.38
			c-18.33,15.24-45.82,22.85-82.48,22.85c-39.25,0-67.26-8-84.04-24.01c-16.78-16-25.69-33.81-26.71-53.44h-54.22
			c0.51,38.73,14.97,69.58,43.37,92.55c28.38,22.97,68.93,34.47,121.6,34.47c33.03,0,61.96-5.42,86.74-16.27
			c24.78-10.84,44.01-25.94,57.7-45.31c13.67-19.36,20.52-41.17,20.52-65.44C2763.82,414.35,2750.78,386.99,2724.71,367.88z"/>
	</g>
	<g>
		<path class="st1" d="M465.75,485.12H219.86c-26.6,0-48.17,21.57-48.17,48.17v63.46c0-26.6,21.57-48.17,48.17-48.17h245.89
			c26.6,0,48.17-21.57,48.17-48.17v-63.46C513.92,463.56,492.35,485.12,465.75,485.12z"/>
		<path class="st1" d="M123.53,656.82H48.17C21.56,656.82,0,635.25,0,608.65v63.46c0,26.6,21.56,48.17,48.17,48.17h75.36
			c26.6,0,48.17-21.57,48.17-48.17v-63.46C171.7,635.25,150.13,656.82,123.53,656.82z"/>
		<path class="st2" d="M465.75,141.73H218.69c-26.6,0-48.17,21.57-48.17,48.17v63.46v183.6c0,26.6-21.57,48.17-48.17,48.17H48.17
			C21.56,485.12,0,506.69,0,533.29v63.46v11.9c0,26.6,21.56,48.17,48.17,48.17h75.36c26.6,0,48.17-21.57,48.17-48.17v-11.9v-63.46
			c0-26.6,21.57-48.17,48.17-48.17h245.89c26.6,0,48.17-21.57,48.17-48.17v-183.6V189.9C513.92,163.3,492.35,141.73,465.75,141.73z"
			/>
	</g>
</g>
</svg>
